inDegrees=no
num_controls=7
num_derivatives=13
num_iterations=88
num_multipliers=7
num_parameters=0
num_slacks=7
num_states=26
objective=0.564914
objective_accelerations=0.046017
objective_balance=0.006716
objective_effort=0.019585
objective_height=0.487006
objective_ligament=0.005589
solver_duration=979.262289
status=Solve_Succeeded
success=true
DataType=double
version=3
OpenSimVersion=4.5
endheader
time	/jointset/ground_pelvis/pelvis_tilt/value	/jointset/ground_pelvis/pelvis_tx/value	/jointset/ground_pelvis/pelvis_ty/value	/jointset/hip_r/hip_flexion_r/value	/jointset/hip_r/hip_adduction_r/value	/jointset/hip_r/hip_rotation_r/value	/jointset/back/lumbar_extension/value	/jointset/patellofemoral_r/patellar_flexion_r/value	/jointset/knee_r/knee_flexion_r/value	/jointset/knee_r/knee_adduction_r/value	/jointset/knee_r/knee_rotation_r/value	/jointset/ankle_r/ankle_angle_r/value	/jointset/subtalar_r/subtalar_angle_r/value	/jointset/ground_pelvis/pelvis_tilt/speed	/jointset/ground_pelvis/pelvis_tx/speed	/jointset/ground_pelvis/pelvis_ty/speed	/jointset/hip_r/hip_flexion_r/speed	/jointset/hip_r/hip_adduction_r/speed	/jointset/hip_r/hip_rotation_r/speed	/jointset/back/lumbar_extension/speed	/jointset/patellofemoral_r/patellar_flexion_r/speed	/jointset/knee_r/knee_flexion_r/speed	/jointset/knee_r/knee_adduction_r/speed	/jointset/knee_r/knee_rotation_r/speed	/jointset/ankle_r/ankle_angle_r/speed	/jointset/subtalar_r/subtalar_angle_r/speed	/forceset/tau_hip_flexion_r	/forceset/tau_hip_adduction_r	/forceset/tau_hip_rotation_r	/forceset/tau_knee_flexion_r	/forceset/tau_ankle_angle_r	/forceset/tau_subtalar_angle_r	/forceset/tau_lumbar_extension	lambda_cid13_p0	lambda_cid14_p0	lambda_cid14_p1	lambda_cid14_p2	lambda_cid14_p3	lambda_cid14_p4	lambda_cid14_p5	/jointset/ground_pelvis/pelvis_tilt/accel	/jointset/ground_pelvis/pelvis_tx/accel	/jointset/ground_pelvis/pelvis_ty/accel	/jointset/hip_r/hip_flexion_r/accel	/jointset/hip_r/hip_adduction_r/accel	/jointset/hip_r/hip_rotation_r/accel	/jointset/back/lumbar_extension/accel	/jointset/patellofemoral_r/patellar_flexion_r/accel	/jointset/knee_r/knee_flexion_r/accel	/jointset/knee_r/knee_adduction_r/accel	/jointset/knee_r/knee_rotation_r/accel	/jointset/ankle_r/ankle_angle_r/accel	/jointset/subtalar_r/subtalar_angle_r/accel	gamma_cid13_p0	gamma_cid14_p0	gamma_cid14_p1	gamma_cid14_p2	gamma_cid14_p3	gamma_cid14_p4	gamma_cid14_p5
1	-0.006727173594611641	0.1134229638874184	0.9480093538717048	0.1544746498089818	-0.165069196487786	-0.104739089384401	-0.02265415447704222	0.0376648129247264	0.03766481292466164	0.03299667743621024	-0.007455216984525678	0.05756403606347042	0.07411326083966363	-0.01978520065889943	0.01632743279035344	0.0005747133774224461	-0.02428365049354783	-0.003071401238993084	-0.002638788220978472	0.04625681078019166	-0.04681063605779771	-0.04681063605780331	0.01101558404445583	-0.005215342228540617	-0.004368877646664274	-0.004651931980291107	0.09809865673445047	-0.02968929916554259	0.02430897649609277	-0.1858018336272141	0.1288825958222651	-0.05368799776582964	-0.01662678395651207	-33.56613786116029	-5.514622138967773	-27.73832847728345	8.829868976064175	9.889935172603183	-694.9128667929626	39.5276393814525	0.1184570154832657	-0.1189921217441979	0.004902524751793344	0.0273301332520152	0.01156010132536602	-0.0009808077246485029	0.06817649785052209	0.02010220315737708	0.0201022031573784	-0.02340645539385329	0.008069001708306319	-0.1284153526865077	-0.02501901029335277	6.145724797865075e-11	1.281461291056814e-10	-6.616016208876708e-10	-1.210274566130551e-10	-1.646494698308121e-11	1.007730188544504e-10	-3.663020151817171e-11
1.01	-0.006919074899471736	0.1135802834649857	0.9480153500038759	0.1542331568279182	-0.1650993207988176	-0.1047655659433321	-0.0221882175284594	0.03719771274106092	0.03719771274090559	0.03310564228139416	-0.007506931303303658	0.05751392432208458	0.07406550369168924	-0.01859435798720397	0.01513573980387734	0.0006246008983635846	-0.02401391470412299	-0.002953380084130252	-0.002656241059783054	0.04692911907353518	-0.04660776857261398	-0.04660776857261666	0.01077704897660328	-0.005127506460618125	-0.005653535245322102	-0.004899406702368572	0.0981515255349346	-0.02980376172673127	0.02432167662331255	-0.185512001221884	0.1286341966141464	-0.05371707724861643	-0.01672659923299205	-33.54506847111448	-5.593810328946279	-27.76107904212783	8.829219566569657	9.908075444321423	-694.9121338974378	39.54266536856732	0.119503251976381	-0.1193693291988832	0.005045070968147812	0.02694996236678069	0.01193512133438605	-0.00208515456692644	0.06653901713051649	0.02062382600740145	0.02062382600785074	-0.02412756298238176	0.009143119773601691	-0.1285006141488224	-0.02459819017951402	5.637430875024818e-11	1.191743491211047e-10	-6.513948254175691e-10	-1.376418027815714e-10	-8.654270674691599e-12	1.439739778629658e-10	-2.262177246543407e-11
1.02	-0.007099046705808578	0.1137256638242716	0.9480218476522979	0.1539943921369951	-0.1651282624985626	-0.1047922085572018	-0.02171560129250827	0.03673269019321516	0.0367326901931545	0.03321221166967749	-0.007557766812918676	0.05745096407457459	0.07401527449909057	-0.01739930095714217	0.01393958913406353	0.0006750166276199857	-0.02373799249155432	-0.002834878978595157	-0.002671999202922794	0.04759266824892534	-0.04639510889506208	-0.04639510889506185	0.01053649268869313	-0.005039580475159945	-0.006938578871706284	-0.005146340905035353	0.09820439433659216	-0.02991822428789499	0.0243343767519595	-0.1852221688158564	0.1283857974062774	-0.05374615673132366	-0.0168264145087356	-33.52405943519079	-5.673241203283407	-27.78346254836412	8.828043832363344	9.934339827435281	-694.9099403235765	39.55744035800529	0.1192998871575353	-0.1198836584126222	0.00500816641487664	0.02856741788090164	0.01165609145949469	-0.0006418685912936936	0.06642467426051209	0.02206064163128655	0.02206064163128531	-0.02381069940476736	0.008087045215276312	-0.1284925582327074	-0.02491090641185051	5.412596681049819e-11	1.111882280332968e-10	-6.325441336954588e-10	-1.462987484740839e-10	-4.714249498631257e-12	1.189305838052144e-10	1.885290002406728e-12
1.03	-0.007267049007709982	0.1138590632174088	0.9480288519584558	0.1537584149639521	-0.1651560172615917	-0.1048190005822546	-0.02123639672628871	0.03626984050224629	0.03626984050209434	0.033316366628788	-0.007607722811364389	0.05737515346613473	0.07396257876081173	-0.01620076093574073	0.01273982012019011	0.0007259014469877734	-0.0234564583480915	-0.002716070971827103	-0.002686108742955631	0.04824652949947474	-0.04617326925040806	-0.04617326925040838	0.01029432147874395	-0.004951624741446505	-0.008223333108238784	-0.005392719477589043	0.0982964157488589	-0.03004920475603009	0.02434482019611302	-0.185011166542397	0.1282548555623954	-0.05377280175511346	-0.0169545406227366	-33.50311566348397	-5.714790745235383	-27.80106487429673	8.829428455989655	9.937832405166535	-694.909522457668	39.58083367856094	0.1201908430481342	-0.1200939314890216	0.005137184712021006	0.02809398587684616	0.01199341899856503	-0.001750948209169844	0.06460952781042908	0.02247962326203851	0.02247962326204789	-0.02444710825041962	0.009149003843186732	-0.1284353616726684	-0.02448836117919532	5.190654933287733e-11	1.032121646893335e-10	-6.136052389503688e-10	-1.548744962025555e-10	-8.137248035130747e-13	9.319081879780672e-11	2.64994813826466e-11
